#N canvas 808 124 689 760 12;
#X obj 518 669 t b;
#X obj 518 616 f;
#X obj 518 694 f;
#X msg 632 693 0;
#X obj 518 646 moses 1;
#X obj 632 665 t b f;
#X obj 598 626 moses 1;
#X obj 31 142 inlet~;
#X msg 520 516 \; pd dsp 1;
#X floatatom 640 386 3 0 100 0 - #0-lvl-set #0-lvl;
#X obj 640 406 bng 15 250 50 0 \$0-mute \$0-mute-set empty 0 0 0 12
-262144 -1 -1;
#X obj 640 423 bng 12 250 50 0 \$0-ctr-pan \$0-ctr-pan-set empty 0
0 0 12 -262144 -1 -1;
#X obj 342 32 vu 8 80 \$0-vu1 empty -1 -8 0 10 -66577 -1 0 0;
#X obj 519 390 r \$0-lvl;
#X obj 519 414 f;
#X obj 597 597 r \$0-lvl;
#X obj 518 720 s \$0-lvl;
#X obj 518 589 r \$0-mute;
#X obj 519 439 max 0;
#X text 538 557 MUTE logic;
#X obj 37 533 abs~;
#X obj 37 558 slop~ 0 0 0.3 0 1e+09;
#X obj 351 564 metro 100;
#X obj 37 605 snapshot~;
#X obj 37 630 rmstodb;
#X obj 37 655 moses 1;
#X msg 37 678 -100;
#X obj 82 678 - 88;
#X obj 100 142 inlet~;
#X obj 357 32 vu 8 80 \$0-vu2 empty -1 -8 0 10 -66577 -1 0 0;
#X obj 351 539 loadbang;
#X obj 195 530 abs~;
#X obj 195 555 slop~ 0 0 0.3 0 1e+09;
#X obj 196 604 snapshot~;
#X obj 196 629 rmstodb;
#X obj 196 654 moses 1;
#X msg 196 677 -100;
#X obj 242 677 - 88;
#X obj 36 707 s \$0-vu1;
#X obj 195 706 s \$0-vu2;
#X obj 519 463 expr pow($f1*0.02 \, 4);
#X floatatom 593 361 2 1 99 0 - #0-ch1-set #0-ch1;
#X text 518 361 mono;
#X obj 551 363 tgl 15 0 \$0-mono \$0-mono-set empty 17 7 0 10 -262144
-1 -1 0 1;
#X text 574 360 ch;
#X obj 77 534 outlet~;
#X obj 234 530 outlet~;
#X msg 405 60 set \$1;
#X msg 519 59 set \$1;
#X obj 534 7 loadbang;
#X obj 313 33 vradio 15 1 0 3 \$0-chsel \$0-chsel-set empty 0 -8 0
10 -262144 -1 -1 2;
#X text 302 30 L;
#X text 302 47 R;
#X text 288 62 L+R;
#X obj 405 35 r \$0-chsel;
#X obj 405 112 s \$0-chsel-set;
#X obj 37 495 *~ 1;
#X obj 107 494 *~ 1;
#X obj 311 142 r \$0-chsel;
#X floatatom 102 57 3 1 999 0 - #0-filen-set #0-filen;
#X text 33 56 next file;
#X floatatom 229 204 5 0 0 0 - - -;
#X obj 229 142 r \$0-filen;
#X obj 519 112 s \$0-filen-set;
#X msg 596 34 1;
#X obj 519 34 r \$0-filen;
#X obj 52 437 writesf~ 1;
#X obj 209 437 writesf~ 2;
#X obj 130 437 writesf~ 1;
#X floatatom 321 168 5 0 0 0 - - -;
#X msg 483 34 0;
#X obj 231 33 tgl 22 0 \$0-rec \$0-rec-set empty 17 7 0 10 -262144
-1 -1 0 1;
#X msg 229 165 set \$1;
#X text 155 35 START/STOP;
#X text 148 57 recording:;
#X floatatom 224 57 4 0 0 0 - #0-recording-set #0-recording;
#X obj 230 254 route 0 1 2;
#X obj 230 230 list prepend;
#X obj 158 142 r \$0-rec;
#X msg 158 202 stop;
#X msg 51 314 open ../\$1.wav \, start;
#X text 519 330 old stuff:;
#X obj 158 166 sel 0 1;
#X msg 129 344 open ../\$1.wav \, start;
#X msg 208 373 open ../\$1.wav \, start;
#X obj 391 142 r \$0-rec;
#X obj 392 193 metro 1000;
#X obj 392 248 + 1;
#X obj 392 222 int;
#X obj 410 168 moses 1;
#X obj 392 277 s \$0-recording-set;
#X obj 526 276 s \$0-filen-set;
#X obj 526 247 + 1;
#X obj 526 221 int;
#X obj 526 195 bng 15 250 50 0 empty empty empty 17 7 0 10 -262144
-1 -1;
#X connect 0 0 2 0;
#X connect 1 0 4 0;
#X connect 2 0 16 0;
#X connect 3 0 16 0;
#X connect 4 0 0 0;
#X connect 4 1 5 0;
#X connect 5 0 3 0;
#X connect 6 1 2 1;
#X connect 7 0 56 0;
#X connect 7 0 66 0;
#X connect 7 0 67 0;
#X connect 13 0 14 0;
#X connect 14 0 18 0;
#X connect 15 0 1 1;
#X connect 15 0 6 0;
#X connect 17 0 1 0;
#X connect 18 0 40 0;
#X connect 20 0 21 0;
#X connect 21 0 23 0;
#X connect 22 0 23 0;
#X connect 22 0 33 0;
#X connect 23 0 24 0;
#X connect 24 0 25 0;
#X connect 25 0 26 0;
#X connect 25 1 27 0;
#X connect 26 0 38 0;
#X connect 27 0 38 0;
#X connect 28 0 57 0;
#X connect 28 0 68 0;
#X connect 28 0 67 1;
#X connect 30 0 22 0;
#X connect 31 0 32 0;
#X connect 32 0 33 0;
#X connect 33 0 34 0;
#X connect 34 0 35 0;
#X connect 35 0 36 0;
#X connect 35 1 37 0;
#X connect 36 0 39 0;
#X connect 37 0 39 0;
#X connect 40 0 8 0;
#X connect 47 0 55 0;
#X connect 48 0 63 0;
#X connect 49 0 70 0;
#X connect 49 0 64 0;
#X connect 54 0 47 0;
#X connect 56 0 20 0;
#X connect 56 0 45 0;
#X connect 57 0 31 0;
#X connect 57 0 46 0;
#X connect 58 0 77 1;
#X connect 58 0 69 0;
#X connect 61 0 77 0;
#X connect 62 0 72 0;
#X connect 64 0 63 0;
#X connect 64 0 93 1;
#X connect 65 0 48 0;
#X connect 70 0 55 0;
#X connect 72 0 61 0;
#X connect 76 0 80 0;
#X connect 76 1 83 0;
#X connect 76 2 84 0;
#X connect 77 0 76 0;
#X connect 78 0 82 0;
#X connect 79 0 66 0;
#X connect 79 0 68 0;
#X connect 79 0 67 0;
#X connect 80 0 66 0;
#X connect 82 0 79 0;
#X connect 82 1 61 0;
#X connect 83 0 68 0;
#X connect 84 0 67 0;
#X connect 85 0 86 0;
#X connect 85 0 89 0;
#X connect 86 0 88 0;
#X connect 87 0 88 1;
#X connect 87 0 90 0;
#X connect 88 0 87 0;
#X connect 89 0 88 1;
#X connect 89 0 94 0;
#X connect 92 0 93 1;
#X connect 92 0 91 0;
#X connect 93 0 92 0;
#X connect 94 0 93 0;
#X coords 0 0 1 1 300 50 1 30 30;
